<svg width="2142" height="1289" viewBox="0 0 2142 1289" fill="none" xmlns="http://www.w3.org/2000/svg">
<g opacity="0.2" clip-path="url(#clip0_0_1)">
<path d="M182.097 965C103.544 965 40 1028.54 40 1107.1C40 1185.46 103.544 1249.19 182.097 1249.19C260.456 1249.19 324.195 1185.65 324.195 1107.1C324 1028.54 260.456 965 182.097 965ZM182.097 1240.03C108.612 1240.03 49.1613 1180.58 49.1613 1107.1C49.1613 1033.61 108.612 974.161 182.097 974.161C255.583 974.161 315.034 1033.61 315.034 1107.1C315.034 1180.39 255.388 1240.03 182.097 1240.03Z" fill="white"/>
<path d="M182.099 995.603C120.699 995.603 70.7988 1045.5 70.7988 1106.9C70.7988 1168.3 120.699 1218.2 182.099 1218.2C243.499 1218.2 293.399 1168.5 293.399 1107.1C293.399 1045.5 243.499 995.603 182.099 995.603ZM182.099 1201.24C130.055 1201.24 87.757 1158.95 87.757 1106.9C87.757 1054.86 130.055 1012.56 182.099 1012.56C234.143 1012.56 276.441 1054.86 276.441 1106.9C276.441 1158.95 234.143 1201.24 182.099 1201.24Z" fill="white"/>
<path d="M182.098 1044.53C147.597 1044.53 119.528 1072.6 119.528 1107.1C119.528 1141.6 147.402 1169.67 182.098 1169.67C216.599 1169.67 244.668 1141.6 244.668 1107.1C244.473 1072.6 216.599 1044.53 182.098 1044.53ZM182.098 1140.62C163.58 1140.62 148.572 1125.61 148.572 1107.1C148.572 1088.58 163.58 1073.57 182.098 1073.57C200.616 1073.57 215.624 1088.58 215.624 1107.1C215.624 1125.61 200.616 1140.62 182.098 1140.62Z" fill="white"/>
</g>
<g opacity="0.8" clip-path="url(#clip1_0_1)">
<path d="M1920.34 858.264C1920.34 859.784 1919.19 860.923 1917.67 860.923C1916.14 860.923 1915 859.784 1915 858.264C1915 856.745 1916.14 855.605 1917.67 855.605C1919.19 855.605 1920.34 856.872 1920.34 858.264Z" fill="white"/>
<path d="M1943.08 858.264C1943.08 859.784 1941.93 860.923 1940.41 860.923C1938.88 860.923 1937.74 859.784 1937.74 858.264C1937.74 856.745 1938.88 855.605 1940.41 855.605C1941.81 855.605 1943.08 856.872 1943.08 858.264Z" fill="white"/>
<path d="M1965.69 858.264C1965.69 859.784 1964.54 860.923 1963.02 860.923C1961.5 860.923 1960.35 859.784 1960.35 858.264C1960.35 856.745 1961.5 855.605 1963.02 855.605C1964.54 855.605 1965.69 856.872 1965.69 858.264Z" fill="white"/>
<path d="M1988.43 858.264C1988.43 859.784 1987.28 860.923 1985.76 860.923C1984.24 860.923 1983.09 859.784 1983.09 858.264C1983.09 856.745 1984.24 855.605 1985.76 855.605C1987.28 855.605 1988.43 856.872 1988.43 858.264Z" fill="white"/>
<path d="M2011.17 858.264C2011.17 859.784 2010.02 860.923 2008.5 860.923C2006.98 860.923 2005.83 859.784 2005.83 858.264C2005.83 856.745 2006.98 855.605 2008.5 855.605C2009.9 855.605 2011.17 856.872 2011.17 858.264Z" fill="white"/>
<path d="M2033.91 858.264C2033.91 859.784 2032.76 860.923 2031.24 860.923C2029.72 860.923 2028.57 859.784 2028.57 858.264C2028.57 856.745 2029.72 855.605 2031.24 855.605C2032.76 855.605 2033.91 856.872 2033.91 858.264Z" fill="white"/>
<path d="M2056.52 858.264C2056.52 859.784 2055.38 860.923 2053.85 860.923C2052.33 860.923 2051.18 859.784 2051.18 858.264C2051.18 856.745 2052.33 855.605 2053.85 855.605C2055.38 855.605 2056.52 856.872 2056.52 858.264Z" fill="white"/>
<path d="M2079.26 858.264C2079.26 859.784 2078.12 860.923 2076.59 860.923C2075.07 860.923 2073.92 859.784 2073.92 858.264C2073.92 856.745 2075.07 855.605 2076.59 855.605C2078.12 855.605 2079.26 856.872 2079.26 858.264Z" fill="white"/>
<path d="M2102 858.264C2102 859.784 2100.86 860.923 2099.33 860.923C2097.81 860.923 2096.66 859.784 2096.66 858.264C2096.66 856.745 2097.81 855.605 2099.33 855.605C2100.73 855.605 2102 856.872 2102 858.264Z" fill="white"/>
<path d="M1920.34 877.131C1920.34 878.65 1919.19 879.79 1917.67 879.79C1916.14 879.79 1915 878.65 1915 877.131C1915 875.611 1916.14 874.472 1917.67 874.472C1919.19 874.472 1920.34 875.611 1920.34 877.131Z" fill="white"/>
<path d="M1943.08 877.131C1943.08 878.65 1941.93 879.79 1940.41 879.79C1938.88 879.79 1937.74 878.65 1937.74 877.131C1937.74 875.611 1938.88 874.472 1940.41 874.472C1941.81 874.472 1943.08 875.611 1943.08 877.131Z" fill="white"/>
<path d="M1965.69 877.131C1965.69 878.65 1964.54 879.79 1963.02 879.79C1961.5 879.79 1960.35 878.65 1960.35 877.131C1960.35 875.611 1961.5 874.472 1963.02 874.472C1964.54 874.472 1965.69 875.611 1965.69 877.131Z" fill="white"/>
<path d="M1988.43 877.131C1988.43 878.65 1987.28 879.79 1985.76 879.79C1984.24 879.79 1983.09 878.65 1983.09 877.131C1983.09 875.611 1984.24 874.472 1985.76 874.472C1987.28 874.472 1988.43 875.611 1988.43 877.131Z" fill="white"/>
<path d="M2011.17 877.131C2011.17 878.65 2010.02 879.79 2008.5 879.79C2006.98 879.79 2005.83 878.65 2005.83 877.131C2005.83 875.611 2006.98 874.472 2008.5 874.472C2009.9 874.472 2011.17 875.611 2011.17 877.131Z" fill="white"/>
<path d="M2033.91 877.131C2033.91 878.65 2032.76 879.79 2031.24 879.79C2029.72 879.79 2028.57 878.65 2028.57 877.131C2028.57 875.611 2029.72 874.472 2031.24 874.472C2032.76 874.472 2033.91 875.611 2033.91 877.131Z" fill="white"/>
<path d="M2056.52 877.131C2056.52 878.65 2055.38 879.79 2053.85 879.79C2052.33 879.79 2051.18 878.65 2051.18 877.131C2051.18 875.611 2052.33 874.472 2053.85 874.472C2055.38 874.472 2056.52 875.611 2056.52 877.131Z" fill="white"/>
<path d="M2079.26 877.131C2079.26 878.65 2078.12 879.79 2076.59 879.79C2075.07 879.79 2073.92 878.65 2073.92 877.131C2073.92 875.611 2075.07 874.472 2076.59 874.472C2078.12 874.472 2079.26 875.611 2079.26 877.131Z" fill="white"/>
<path d="M2102 877.131C2102 878.65 2100.86 879.79 2099.33 879.79C2097.81 879.79 2096.66 878.65 2096.66 877.131C2096.66 875.611 2097.81 874.472 2099.33 874.472C2100.73 874.472 2102 875.611 2102 877.131Z" fill="white"/>
<path d="M1920.34 820.659C1920.34 822.178 1919.19 823.318 1917.67 823.318C1916.14 823.318 1915 822.178 1915 820.659C1915 819.14 1916.14 818 1917.67 818C1919.19 818 1920.34 819.14 1920.34 820.659Z" fill="white"/>
<path d="M1943.08 820.659C1943.08 822.178 1941.93 823.318 1940.41 823.318C1938.88 823.318 1937.74 822.178 1937.74 820.659C1937.74 819.14 1938.88 818 1940.41 818C1941.81 818 1943.08 819.14 1943.08 820.659Z" fill="white"/>
<path d="M1965.69 820.659C1965.69 822.178 1964.54 823.318 1963.02 823.318C1961.5 823.318 1960.35 822.178 1960.35 820.659C1960.35 819.14 1961.62 818 1963.02 818C1964.54 818 1965.69 819.14 1965.69 820.659Z" fill="white"/>
<path d="M1988.43 820.659C1988.43 822.178 1987.28 823.318 1985.76 823.318C1984.24 823.318 1983.09 822.178 1983.09 820.659C1983.09 819.14 1984.36 818 1985.76 818C1987.16 818 1988.43 819.14 1988.43 820.659Z" fill="white"/>
<path d="M2011.17 820.659C2011.17 822.178 2010.02 823.318 2008.5 823.318C2006.98 823.318 2005.83 822.178 2005.83 820.659C2005.83 819.14 2006.98 818 2008.5 818C2009.9 818 2011.17 819.14 2011.17 820.659Z" fill="white"/>
<path d="M2033.91 820.659C2033.91 822.178 2032.76 823.318 2031.24 823.318C2029.72 823.318 2028.57 822.178 2028.57 820.659C2028.57 819.14 2029.72 818 2031.24 818C2032.76 818 2033.91 819.14 2033.91 820.659Z" fill="white"/>
<path d="M2056.52 820.659C2056.52 822.178 2055.38 823.318 2053.85 823.318C2052.33 823.318 2051.18 822.178 2051.18 820.659C2051.18 819.14 2052.33 818 2053.85 818C2055.38 818 2056.52 819.14 2056.52 820.659Z" fill="white"/>
<path d="M2079.26 820.659C2079.26 822.178 2078.12 823.318 2076.59 823.318C2075.07 823.318 2073.92 822.178 2073.92 820.659C2073.92 819.14 2075.07 818 2076.59 818C2078.12 818 2079.26 819.14 2079.26 820.659Z" fill="white"/>
<path d="M2102 820.659C2102 822.178 2100.86 823.318 2099.33 823.318C2097.81 823.318 2096.66 822.178 2096.66 820.659C2096.66 819.14 2097.81 818 2099.33 818C2100.73 818 2102 819.14 2102 820.659Z" fill="white"/>
<path d="M1920.34 839.525C1920.34 841.045 1919.19 842.184 1917.67 842.184C1916.14 842.184 1915 840.918 1915 839.525C1915 838.006 1916.14 836.866 1917.67 836.866C1919.19 836.866 1920.34 838.006 1920.34 839.525Z" fill="white"/>
<path d="M1943.08 839.525C1943.08 841.045 1941.93 842.184 1940.41 842.184C1938.88 842.184 1937.74 841.045 1937.74 839.525C1937.74 838.006 1938.88 836.866 1940.41 836.866C1941.81 836.866 1943.08 838.006 1943.08 839.525Z" fill="white"/>
<path d="M1965.69 839.525C1965.69 841.045 1964.54 842.184 1963.02 842.184C1961.5 842.184 1960.35 841.045 1960.35 839.525C1960.35 838.006 1961.5 836.866 1963.02 836.866C1964.54 836.866 1965.69 838.006 1965.69 839.525Z" fill="white"/>
<path d="M1988.43 839.525C1988.43 841.045 1987.28 842.184 1985.76 842.184C1984.24 842.184 1983.09 841.045 1983.09 839.525C1983.09 838.006 1984.24 836.866 1985.76 836.866C1987.28 836.866 1988.43 838.006 1988.43 839.525Z" fill="white"/>
<path d="M2011.17 839.525C2011.17 841.045 2010.02 842.184 2008.5 842.184C2006.98 842.184 2005.83 841.045 2005.83 839.525C2005.83 838.006 2006.98 836.866 2008.5 836.866C2009.9 836.866 2011.17 838.006 2011.17 839.525Z" fill="white"/>
<path d="M2033.91 839.525C2033.91 841.045 2032.76 842.184 2031.24 842.184C2029.72 842.184 2028.57 841.045 2028.57 839.525C2028.57 838.006 2029.72 836.866 2031.24 836.866C2032.76 836.866 2033.91 838.006 2033.91 839.525Z" fill="white"/>
<path d="M2056.52 839.525C2056.52 841.045 2055.38 842.184 2053.85 842.184C2052.33 842.184 2051.18 841.045 2051.18 839.525C2051.18 838.006 2052.33 836.866 2053.85 836.866C2055.38 836.866 2056.52 838.006 2056.52 839.525Z" fill="white"/>
<path d="M2079.26 839.525C2079.26 841.045 2078.12 842.184 2076.59 842.184C2075.07 842.184 2073.92 841.045 2073.92 839.525C2073.92 838.006 2075.07 836.866 2076.59 836.866C2078.12 836.866 2079.26 838.006 2079.26 839.525Z" fill="white"/>
<path d="M2102 839.525C2102 841.045 2100.86 842.184 2099.33 842.184C2097.81 842.184 2096.66 841.045 2096.66 839.525C2096.66 838.006 2097.81 836.866 2099.33 836.866C2100.73 836.866 2102 838.006 2102 839.525Z" fill="white"/>
<path d="M1920.34 895.87C1920.34 897.389 1919.19 898.529 1917.67 898.529C1916.14 898.529 1915 897.389 1915 895.87C1915 894.35 1916.14 893.211 1917.67 893.211C1919.19 893.211 1920.34 894.477 1920.34 895.87Z" fill="white"/>
<path d="M1943.08 895.87C1943.08 897.389 1941.93 898.529 1940.41 898.529C1938.88 898.529 1937.74 897.389 1937.74 895.87C1937.74 894.35 1938.88 893.211 1940.41 893.211C1941.81 893.211 1943.08 894.477 1943.08 895.87Z" fill="white"/>
<path d="M1965.69 895.87C1965.69 897.389 1964.54 898.529 1963.02 898.529C1961.5 898.529 1960.35 897.389 1960.35 895.87C1960.35 894.35 1961.5 893.211 1963.02 893.211C1964.54 893.211 1965.69 894.477 1965.69 895.87Z" fill="white"/>
<path d="M1988.43 895.87C1988.43 897.389 1987.28 898.529 1985.76 898.529C1984.24 898.529 1983.09 897.389 1983.09 895.87C1983.09 894.35 1984.24 893.211 1985.76 893.211C1987.28 893.211 1988.43 894.477 1988.43 895.87Z" fill="white"/>
<path d="M2011.17 895.87C2011.17 897.389 2010.02 898.529 2008.5 898.529C2006.98 898.529 2005.83 897.389 2005.83 895.87C2005.83 894.35 2006.98 893.211 2008.5 893.211C2009.9 893.211 2011.17 894.477 2011.17 895.87Z" fill="white"/>
<path d="M2033.91 895.87C2033.91 897.389 2032.76 898.529 2031.24 898.529C2029.72 898.529 2028.57 897.389 2028.57 895.87C2028.57 894.35 2029.72 893.211 2031.24 893.211C2032.76 893.211 2033.91 894.477 2033.91 895.87Z" fill="white"/>
<path d="M2056.52 895.87C2056.52 897.389 2055.38 898.529 2053.85 898.529C2052.33 898.529 2051.18 897.389 2051.18 895.87C2051.18 894.35 2052.33 893.211 2053.85 893.211C2055.38 893.211 2056.52 894.477 2056.52 895.87Z" fill="white"/>
<path d="M2079.26 895.87C2079.26 897.389 2078.12 898.529 2076.59 898.529C2075.07 898.529 2073.92 897.389 2073.92 895.87C2073.92 894.35 2075.07 893.211 2076.59 893.211C2078.12 893.211 2079.26 894.477 2079.26 895.87Z" fill="white"/>
<path d="M2102 895.87C2102 897.389 2100.86 898.529 2099.33 898.529C2097.81 898.529 2096.66 897.389 2096.66 895.87C2096.66 894.35 2097.81 893.211 2099.33 893.211C2100.73 893.211 2102 894.477 2102 895.87Z" fill="white"/>
<path d="M1920.34 914.736C1920.34 916.256 1919.19 917.395 1917.67 917.395C1916.14 917.395 1915 916.256 1915 914.736C1915 913.217 1916.14 912.077 1917.67 912.077C1919.19 912.077 1920.34 913.217 1920.34 914.736Z" fill="white"/>
<path d="M1943.08 914.736C1943.08 916.256 1941.93 917.395 1940.41 917.395C1938.88 917.395 1937.74 916.256 1937.74 914.736C1937.74 913.217 1938.88 912.077 1940.41 912.077C1941.81 912.077 1943.08 913.217 1943.08 914.736Z" fill="white"/>
<path d="M1965.69 914.736C1965.69 916.256 1964.54 917.395 1963.02 917.395C1961.5 917.395 1960.35 916.256 1960.35 914.736C1960.35 913.217 1961.5 912.077 1963.02 912.077C1964.54 912.077 1965.69 913.217 1965.69 914.736Z" fill="white"/>
<path d="M1985.76 917.395C1987.23 917.395 1988.43 916.205 1988.43 914.736C1988.43 913.268 1987.23 912.077 1985.76 912.077C1984.29 912.077 1983.09 913.268 1983.09 914.736C1983.09 916.205 1984.29 917.395 1985.76 917.395Z" fill="white"/>
<path d="M2011.17 914.736C2011.17 916.256 2010.02 917.395 2008.5 917.395C2006.98 917.395 2005.83 916.256 2005.83 914.736C2005.83 913.217 2006.98 912.077 2008.5 912.077C2009.9 912.077 2011.17 913.217 2011.17 914.736Z" fill="white"/>
<path d="M2033.91 914.736C2033.91 916.256 2032.76 917.395 2031.24 917.395C2029.72 917.395 2028.57 916.256 2028.57 914.736C2028.57 913.217 2029.72 912.077 2031.24 912.077C2032.76 912.077 2033.91 913.217 2033.91 914.736Z" fill="white"/>
<path d="M2056.52 914.736C2056.52 916.256 2055.38 917.395 2053.85 917.395C2052.33 917.395 2051.18 916.256 2051.18 914.736C2051.18 913.217 2052.33 912.077 2053.85 912.077C2055.38 912.077 2056.52 913.217 2056.52 914.736Z" fill="white"/>
<path d="M2076.59 917.395C2078.07 917.395 2079.26 916.205 2079.26 914.736C2079.26 913.268 2078.07 912.077 2076.59 912.077C2075.12 912.077 2073.92 913.268 2073.92 914.736C2073.92 916.205 2075.12 917.395 2076.59 917.395Z" fill="white"/>
<path d="M2102 914.736C2102 916.256 2100.86 917.395 2099.33 917.395C2097.81 917.395 2096.66 916.256 2096.66 914.736C2096.66 913.217 2097.81 912.077 2099.33 912.077C2100.73 912.077 2102 913.217 2102 914.736Z" fill="white"/>
<path d="M1920.34 933.601C1920.34 935.121 1919.19 936.26 1917.67 936.26C1916.14 936.26 1915 935.121 1915 933.601C1915 932.082 1916.14 930.942 1917.67 930.942C1919.19 930.942 1920.34 932.082 1920.34 933.601Z" fill="white"/>
<path d="M1943.08 933.601C1943.08 935.121 1941.93 936.26 1940.41 936.26C1938.88 936.26 1937.74 935.121 1937.74 933.601C1937.74 932.082 1938.88 930.942 1940.41 930.942C1941.81 930.942 1943.08 932.082 1943.08 933.601Z" fill="white"/>
<path d="M1965.69 933.601C1965.69 935.121 1964.54 936.26 1963.02 936.26C1961.5 936.26 1960.35 935.121 1960.35 933.601C1960.35 932.082 1961.5 930.942 1963.02 930.942C1964.54 930.942 1965.69 932.082 1965.69 933.601Z" fill="white"/>
<path d="M1988.43 933.601C1988.43 935.121 1987.28 936.26 1985.76 936.26C1984.24 936.26 1983.09 935.121 1983.09 933.601C1983.09 932.082 1984.24 930.942 1985.76 930.942C1987.28 930.942 1988.43 932.082 1988.43 933.601Z" fill="white"/>
<path d="M2011.17 933.601C2011.17 935.121 2010.02 936.26 2008.5 936.26C2006.98 936.26 2005.83 935.121 2005.83 933.601C2005.83 932.082 2006.98 930.942 2008.5 930.942C2009.9 930.942 2011.17 932.082 2011.17 933.601Z" fill="white"/>
<path d="M2033.91 933.601C2033.91 935.121 2032.76 936.26 2031.24 936.26C2029.72 936.26 2028.57 935.121 2028.57 933.601C2028.57 932.082 2029.72 930.942 2031.24 930.942C2032.76 930.942 2033.91 932.082 2033.91 933.601Z" fill="white"/>
<path d="M2056.52 933.601C2056.52 935.121 2055.38 936.26 2053.85 936.26C2052.33 936.26 2051.18 935.121 2051.18 933.601C2051.18 932.082 2052.33 930.942 2053.85 930.942C2055.38 930.942 2056.52 932.082 2056.52 933.601Z" fill="white"/>
<path d="M2079.26 933.601C2079.26 935.121 2078.12 936.26 2076.59 936.26C2075.07 936.26 2073.92 935.121 2073.92 933.601C2073.92 932.082 2075.07 930.942 2076.59 930.942C2078.12 930.942 2079.26 932.082 2079.26 933.601Z" fill="white"/>
<path d="M2102 933.601C2102 935.121 2100.86 936.26 2099.33 936.26C2097.81 936.26 2096.66 935.121 2096.66 933.601C2096.66 932.082 2097.81 930.942 2099.33 930.942C2100.73 930.942 2102 932.082 2102 933.601Z" fill="white"/>
<path d="M1920.34 952.341C1920.34 953.86 1919.19 955 1917.67 955C1916.14 955 1915 953.86 1915 952.341C1915 950.821 1916.14 949.682 1917.67 949.682C1919.19 949.682 1920.34 950.948 1920.34 952.341Z" fill="white"/>
<path d="M1943.08 952.341C1943.08 953.86 1941.93 955 1940.41 955C1938.88 955 1937.74 953.86 1937.74 952.341C1937.74 950.821 1938.88 949.682 1940.41 949.682C1941.81 949.682 1943.08 950.948 1943.08 952.341Z" fill="white"/>
<path d="M1965.69 952.341C1965.69 953.86 1964.54 955 1963.02 955C1961.5 955 1960.35 953.86 1960.35 952.341C1960.35 950.821 1961.5 949.682 1963.02 949.682C1964.54 949.682 1965.69 950.948 1965.69 952.341Z" fill="white"/>
<path d="M1988.43 952.341C1988.43 953.86 1987.28 955 1985.76 955C1984.24 955 1983.09 953.86 1983.09 952.341C1983.09 950.821 1984.24 949.682 1985.76 949.682C1987.28 949.682 1988.43 950.948 1988.43 952.341Z" fill="white"/>
<path d="M2011.17 952.341C2011.17 953.86 2010.02 955 2008.5 955C2006.98 955 2005.83 953.86 2005.83 952.341C2005.83 950.821 2006.98 949.682 2008.5 949.682C2009.9 949.682 2011.17 950.948 2011.17 952.341Z" fill="white"/>
<path d="M2033.91 952.341C2033.91 953.86 2032.76 955 2031.24 955C2029.72 955 2028.57 953.86 2028.57 952.341C2028.57 950.821 2029.72 949.682 2031.24 949.682C2032.76 949.682 2033.91 950.948 2033.91 952.341Z" fill="white"/>
<path d="M2056.52 952.341C2056.52 953.86 2055.38 955 2053.85 955C2052.33 955 2051.18 953.86 2051.18 952.341C2051.18 950.821 2052.33 949.682 2053.85 949.682C2055.38 949.682 2056.52 950.948 2056.52 952.341Z" fill="white"/>
<path d="M2079.26 952.341C2079.26 953.86 2078.12 955 2076.59 955C2075.07 955 2073.92 953.86 2073.92 952.341C2073.92 950.821 2075.07 949.682 2076.59 949.682C2078.12 949.682 2079.26 950.948 2079.26 952.341Z" fill="white"/>
<path d="M2102 952.341C2102 953.86 2100.86 955 2099.33 955C2097.81 955 2096.66 953.86 2096.66 952.341C2096.66 950.821 2097.81 949.682 2099.33 949.682C2100.73 949.682 2102 950.948 2102 952.341Z" fill="white"/>
</g>
<g opacity="0.3">
<path d="M1913.81 144.221L1923.47 153.88L1897.78 179.563L1872.1 153.88L1881.68 144.294L1897.71 160.319L1913.81 144.221Z" fill="white"/>
<path d="M1913.81 109.539L1923.39 119.124L1897.71 144.807L1872.1 119.197L1881.76 109.539L1897.78 125.563L1913.81 109.539Z" fill="white"/>
<path d="M1913.73 74.7816L1923.39 84.4404L1897.78 110.051L1872.1 84.3672L1881.68 74.7816L1897.71 90.8063L1913.73 74.7816Z" fill="white"/>
<path d="M1913.81 40.0239L1923.46 49.6826L1897.78 75.366L1872.1 49.6826L1881.76 40.0239L1897.78 56.0486L1913.81 40.0239Z" fill="white"/>
</g>
<path opacity="0.3" d="M946 877.553C932.071 891.482 909.377 891.482 895.447 877.553C881.518 863.623 881.518 840.929 895.447 827L946 877.553Z" fill="white"/>
<g opacity="0.3">
<path d="M1000.49 598.89C1011.21 598.89 1019.94 590.165 1019.94 579.453C1019.94 568.742 1011.21 560.017 1000.49 560.017L1000.49 598.89Z" fill="white"/>
<path d="M970.141 598.89C980.861 598.89 989.592 590.165 989.592 579.453C989.592 568.742 980.861 560.017 970.141 560.017L970.141 598.89Z" fill="white"/>
<path d="M939.796 598.89C950.515 598.89 959.247 590.165 959.247 579.453C959.247 568.742 950.515 560.017 939.796 560.017L939.796 598.89Z" fill="white"/>
</g>
<g opacity="0.3">
<path d="M298.301 213.921L298.301 202L330 202L330 233.699L318.169 233.699L318.169 213.921L298.301 213.921Z" fill="white"/>
<path d="M276.898 235.325L276.898 223.494L308.597 223.494L308.597 255.103L296.676 255.103L296.676 235.325L276.898 235.325Z" fill="white"/>
<path d="M255.495 256.819L255.495 244.898L287.103 244.898L287.103 276.597L275.272 276.597L275.272 256.819L255.495 256.819Z" fill="white"/>
<path d="M234 278.222L234 266.301L265.699 266.301L265.699 298L253.778 298L253.778 278.222L234 278.222Z" fill="white"/>
</g>
<rect x="152" y="37" width="45.3125" height="26" rx="3" fill="white"/>
<rect x="152.5" y="37.5" width="44.3125" height="25" rx="2.5" stroke="black" stroke-opacity="0.14902"/>
<path d="M161.094 48.3437L160.266 48.5781C160.214 48.4401 160.137 48.306 160.035 48.1758C159.936 48.043 159.801 47.9336 159.629 47.8477C159.457 47.7617 159.237 47.7187 158.969 47.7187C158.602 47.7187 158.296 47.8034 158.051 47.9727C157.809 48.1393 157.688 48.3516 157.688 48.6094C157.688 48.8385 157.771 49.0195 157.938 49.1523C158.104 49.2852 158.365 49.3958 158.719 49.4844L159.609 49.7031C160.146 49.8333 160.546 50.0326 160.809 50.3008C161.072 50.5664 161.203 50.9089 161.203 51.3281C161.203 51.6719 161.104 51.9792 160.906 52.25C160.711 52.5208 160.438 52.7344 160.086 52.8906C159.734 53.0469 159.326 53.125 158.859 53.125C158.247 53.125 157.741 52.9922 157.34 52.7266C156.939 52.4609 156.685 52.0729 156.578 51.5625L157.453 51.3437C157.536 51.6667 157.694 51.9089 157.926 52.0703C158.16 52.2318 158.466 52.3125 158.844 52.3125C159.273 52.3125 159.615 52.2214 159.867 52.0391C160.122 51.8542 160.25 51.6328 160.25 51.375C160.25 51.1667 160.177 50.9922 160.031 50.8516C159.885 50.7083 159.661 50.6016 159.359 50.5312L158.359 50.2969C157.81 50.1667 157.406 49.9648 157.148 49.6914C156.893 49.4154 156.766 49.0703 156.766 48.6562C156.766 48.3177 156.861 48.0182 157.051 47.7578C157.243 47.4974 157.505 47.293 157.836 47.1445C158.169 46.9961 158.547 46.9219 158.969 46.9219C159.563 46.9219 160.029 47.0521 160.367 47.3125C160.708 47.5729 160.951 47.9167 161.094 48.3437ZM163.513 49.3906V53H162.591V45H163.513V47.9375H163.591C163.731 47.6276 163.942 47.3815 164.224 47.1992C164.507 47.0143 164.885 46.9219 165.356 46.9219C165.765 46.9219 166.123 47.0039 166.431 47.168C166.738 47.3294 166.976 47.5781 167.146 47.9141C167.317 48.2474 167.403 48.6719 167.403 49.1875V53H166.481V49.25C166.481 48.7734 166.358 48.4049 166.11 48.1445C165.866 47.8815 165.526 47.75 165.091 47.75C164.789 47.75 164.518 47.8138 164.278 47.9414C164.041 48.069 163.854 48.2552 163.716 48.5C163.58 48.7448 163.513 49.0417 163.513 49.3906ZM170.855 53.1406C170.475 53.1406 170.13 53.069 169.82 52.9258C169.51 52.7799 169.264 52.5703 169.082 52.2969C168.9 52.0208 168.809 51.6875 168.809 51.2969C168.809 50.9531 168.876 50.6745 169.012 50.4609C169.147 50.2448 169.328 50.0755 169.555 49.9531C169.781 49.8307 170.031 49.7396 170.305 49.6797C170.581 49.6172 170.858 49.5677 171.137 49.5313C171.501 49.4844 171.797 49.4492 172.023 49.4258C172.253 49.3997 172.419 49.3568 172.523 49.2969C172.63 49.237 172.684 49.1328 172.684 48.9844V48.9531C172.684 48.5677 172.578 48.2682 172.367 48.0547C172.159 47.8411 171.842 47.7344 171.418 47.7344C170.978 47.7344 170.633 47.8307 170.383 48.0234C170.133 48.2161 169.957 48.4219 169.855 48.6406L168.98 48.3281C169.137 47.9635 169.345 47.6797 169.605 47.4766C169.868 47.2708 170.155 47.1276 170.465 47.0469C170.777 46.9635 171.085 46.9219 171.387 46.9219C171.579 46.9219 171.801 46.9453 172.051 46.9922C172.303 47.0365 172.547 47.1289 172.781 47.2695C173.018 47.4102 173.215 47.6224 173.371 47.9062C173.527 48.1901 173.605 48.5703 173.605 49.0469V53H172.684V52.1875H172.637C172.574 52.3177 172.47 52.457 172.324 52.6055C172.178 52.7539 171.984 52.8802 171.742 52.9844C171.5 53.0885 171.204 53.1406 170.855 53.1406ZM170.996 52.3125C171.361 52.3125 171.668 52.2409 171.918 52.0977C172.171 51.9544 172.361 51.7695 172.488 51.543C172.618 51.3164 172.684 51.0781 172.684 50.8281V49.9844C172.645 50.0312 172.559 50.0742 172.426 50.1133C172.296 50.1497 172.145 50.1823 171.973 50.2109C171.803 50.237 171.638 50.2604 171.477 50.2812C171.318 50.2995 171.189 50.3151 171.09 50.3281C170.85 50.3594 170.626 50.4102 170.418 50.4805C170.212 50.5482 170.046 50.651 169.918 50.7891C169.793 50.9245 169.73 51.1094 169.73 51.3437C169.73 51.6641 169.849 51.9062 170.086 52.0703C170.326 52.2318 170.629 52.3125 170.996 52.3125ZM175.288 55.25V47H176.179V47.9531H176.288C176.356 47.849 176.45 47.7161 176.569 47.5547C176.692 47.3906 176.866 47.2448 177.093 47.1172C177.322 46.987 177.632 46.9219 178.022 46.9219C178.528 46.9219 178.973 47.0482 179.358 47.3008C179.744 47.5534 180.045 47.9115 180.261 48.375C180.477 48.8385 180.585 49.3854 180.585 50.0156C180.585 50.651 180.477 51.2018 180.261 51.668C180.045 52.1315 179.745 52.4909 179.362 52.7461C178.979 52.9987 178.538 53.125 178.038 53.125C177.653 53.125 177.344 53.0612 177.112 52.9336C176.881 52.8034 176.702 52.6562 176.577 52.4922C176.452 52.3255 176.356 52.1875 176.288 52.0781H176.21V55.25H175.288ZM176.194 50C176.194 50.4531 176.261 50.8529 176.394 51.1992C176.526 51.543 176.72 51.8125 176.976 52.0078C177.231 52.2005 177.543 52.2969 177.913 52.2969C178.299 52.2969 178.62 52.1953 178.878 51.9922C179.138 51.7865 179.334 51.5104 179.464 51.1641C179.597 50.8151 179.663 50.4271 179.663 50C179.663 49.5781 179.598 49.1979 179.468 48.8594C179.34 48.5182 179.146 48.2487 178.886 48.0508C178.628 47.8503 178.304 47.75 177.913 47.75C177.538 47.75 177.223 47.8451 176.968 48.0352C176.713 48.2227 176.52 48.4857 176.39 48.8242C176.259 49.1602 176.194 49.5521 176.194 50ZM184.507 53.125C183.929 53.125 183.43 52.9974 183.011 52.7422C182.594 52.4844 182.272 52.125 182.046 51.6641C181.822 51.2005 181.71 50.6615 181.71 50.0469C181.71 49.4323 181.822 48.8906 182.046 48.4219C182.272 47.9505 182.588 47.5833 182.991 47.3203C183.397 47.0547 183.871 46.9219 184.413 46.9219C184.726 46.9219 185.034 46.974 185.339 47.0781C185.644 47.1823 185.921 47.3516 186.171 47.5859C186.421 47.8177 186.62 48.125 186.769 48.5078C186.917 48.8906 186.991 49.362 186.991 49.9219V50.3125H182.366V49.5156H186.054C186.054 49.1771 185.986 48.875 185.851 48.6094C185.718 48.3437 185.528 48.1341 185.28 47.9805C185.035 47.8268 184.746 47.75 184.413 47.75C184.046 47.75 183.728 47.8411 183.46 48.0234C183.194 48.2031 182.99 48.4375 182.847 48.7266C182.703 49.0156 182.632 49.3255 182.632 49.6562V50.1875C182.632 50.6406 182.71 51.0247 182.866 51.3398C183.025 51.6523 183.245 51.8906 183.526 52.0547C183.808 52.2161 184.134 52.2969 184.507 52.2969C184.749 52.2969 184.968 52.263 185.163 52.1953C185.361 52.125 185.532 52.0208 185.675 51.8828C185.818 51.7422 185.929 51.5677 186.007 51.3594L186.897 51.6094C186.804 51.9115 186.646 52.1771 186.425 52.4062C186.203 52.6328 185.93 52.8099 185.604 52.9375C185.279 53.0625 184.913 53.125 184.507 53.125ZM192.644 48.3437L191.815 48.5781C191.763 48.4401 191.687 48.306 191.585 48.1758C191.486 48.043 191.351 47.9336 191.179 47.8477C191.007 47.7617 190.787 47.7187 190.519 47.7187C190.151 47.7187 189.845 47.8034 189.601 47.9727C189.358 48.1393 189.237 48.3516 189.237 48.6094C189.237 48.8385 189.321 49.0195 189.487 49.1523C189.654 49.2852 189.914 49.3958 190.269 49.4844L191.159 49.7031C191.696 49.8333 192.095 50.0326 192.358 50.3008C192.621 50.5664 192.753 50.9089 192.753 51.3281C192.753 51.6719 192.654 51.9792 192.456 52.25C192.261 52.5208 191.987 52.7344 191.636 52.8906C191.284 53.0469 190.875 53.125 190.409 53.125C189.797 53.125 189.291 52.9922 188.89 52.7266C188.489 52.4609 188.235 52.0729 188.128 51.5625L189.003 51.3437C189.086 51.6667 189.244 51.9089 189.476 52.0703C189.71 52.2318 190.016 52.3125 190.394 52.3125C190.823 52.3125 191.164 52.2214 191.417 52.0391C191.672 51.8542 191.8 51.6328 191.8 51.375C191.8 51.1667 191.727 50.9922 191.581 50.8516C191.435 50.7083 191.211 50.6016 190.909 50.5312L189.909 50.2969C189.36 50.1667 188.956 49.9648 188.698 49.6914C188.443 49.4154 188.315 49.0703 188.315 48.6562C188.315 48.3177 188.41 48.0182 188.601 47.7578C188.793 47.4974 189.055 47.293 189.386 47.1445C189.719 46.9961 190.097 46.9219 190.519 46.9219C191.112 46.9219 191.578 47.0521 191.917 47.3125C192.258 47.5729 192.5 47.9167 192.644 48.3437Z" fill="black"/>
<defs>
<clipPath id="clip0_0_1">
<rect width="284" height="284" fill="white" transform="translate(40 965)"/>
</clipPath>
<clipPath id="clip1_0_1">
<rect width="187" height="137" fill="white" transform="translate(1915 818)"/>
</clipPath>
</defs>
</svg>
